<?xml version="1.0" standalone="no"?>
<!DOCTYPE svg PUBLIC "-//W3C//DTD SVG 20010904//EN"
 "http://www.w3.org/TR/2001/REC-SVG-20010904/DTD/svg10.dtd">
<svg version="1.0" xmlns="http://www.w3.org/2000/svg"
 width="65.000000pt" height="64.000000pt" viewBox="0 0 65.000000 64.000000"
 preserveAspectRatio="xMidYMid meet">

<g transform="translate(0.000000,64.000000) scale(0.100000,-0.100000)"
fill="#000000" stroke="none">
<path d="M103 489 c-72 -22 -86 -45 -23 -36 l40 5 0 -148 0 -149 -32 -3 c-18
-2 -32 -7 -30 -13 3 -15 174 -13 180 3 2 8 -7 12 -27 12 l-31 0 0 169 c0 94
-3 172 -7 174 -5 3 -36 -4 -70 -14z"/>
<path d="M320 485 c0 -8 9 -15 20 -15 19 0 20 -7 20 -155 0 -150 -1 -155 -21
-155 -12 0 -19 -5 -17 -12 6 -18 125 -22 194 -8 65 14 94 45 94 101 0 42 -29
79 -63 79 -16 0 -14 5 12 29 54 50 35 121 -37 141 -20 5 -74 10 -119 10 -67 0
-83 -3 -83 -15z m188 -31 c15 -10 22 -25 22 -48 0 -40 -25 -65 -74 -73 l-36
-6 0 72 0 71 33 0 c18 0 43 -7 55 -16z m5 -155 c12 -7 25 -17 29 -23 10 -14
10 -68 0 -82 -13 -19 -50 -34 -86 -34 l-36 0 0 75 0 75 36 0 c19 0 45 -5 57
-11z"/>
</g>
</svg>
